<svg xmlns="http://www.w3.org/2000/svg" viewBox="159 102 60 60" width="60" height="60">
  <defs><g/><clipPath id="22a685eeb8"><path d="M 173.820312 117.015625 L 203.070312 117.015625 L 203.070312 146 L 173.820312 146 Z M 173.820312 117.015625 " clip-rule="nonzero"/></clipPath><clipPath id="7513ab8005"><path d="M 163.550781 106.746094 L 213.332031 106.746094 L 213.332031 156.527344 L 163.550781 156.527344 Z M 163.550781 106.746094 " clip-rule="nonzero"/></clipPath><clipPath id="57d159293a"><path d="M 188.441406 156.527344 C 181.796875 156.527344 175.539062 153.9375 170.84375 149.234375 C 166.136719 144.539062 163.550781 138.28125 163.550781 131.636719 C 163.550781 124.992188 166.136719 118.734375 170.84375 114.039062 C 175.539062 109.332031 181.796875 106.746094 188.441406 106.746094 C 195.085938 106.746094 201.34375 109.332031 206.039062 114.039062 C 210.746094 118.742188 213.332031 124.992188 213.332031 131.636719 C 213.332031 138.28125 210.746094 144.539062 206.039062 149.234375 C 201.34375 153.9375 195.085938 156.527344 188.441406 156.527344 Z M 188.441406 108.238281 C 182.195312 108.238281 176.316406 110.675781 171.898438 115.09375 C 167.480469 119.511719 165.042969 125.390625 165.042969 131.636719 C 165.042969 137.882812 167.480469 143.761719 171.898438 148.179688 C 176.316406 152.597656 182.195312 155.035156 188.441406 155.035156 C 194.6875 155.035156 200.566406 152.597656 204.984375 148.179688 C 209.402344 143.761719 211.839844 137.882812 211.839844 131.636719 C 211.839844 125.390625 209.402344 119.511719 204.984375 115.09375 C 200.566406 110.675781 194.6875 108.238281 188.441406 108.238281 Z M 188.441406 108.238281 " clip-rule="nonzero"/></clipPath></defs>
  <g clip-path="url(#22a685eeb8)"><path fill="#1B3A6B" d="M 202.898438 135.414062 L 199.503906 132.757812 C 199.117188 132.453125 198.589844 132.410156 198.164062 132.648438 L 194.386719 134.734375 C 193.800781 135.058594 193.585938 135.800781 193.910156 136.386719 C 194.234375 136.976562 194.976562 137.191406 195.566406 136.867188 L 197.164062 135.847656 C 196.421875 139.660156 193.074219 142.625 189.175781 143.144531 L 189.175781 129.101562 L 192.101562 129.101562 C 192.773438 129.101562 193.316406 128.3125 193.316406 127.640625 C 193.316406 126.96875 192.773438 126.179688 192.101562 126.179688 L 189.175781 126.179688 L 189.175781 124.683594 C 191.125 124.179688 191.855469 122.839844 191.855469 121.253906 C 191.855469 119.238281 190.339844 117.601562 188.324219 117.601562 C 186.308594 117.601562 184.730469 119.238281 184.730469 121.253906 C 184.730469 122.839844 185.808594 124.179688 187.226562 124.683594 L 187.226562 126.179688 L 184.789062 126.179688 C 184.117188 126.179688 183.570312 126.96875 183.570312 127.640625 C 183.570312 128.3125 184.117188 129.101562 184.789062 129.101562 L 187.226562 129.101562 L 187.226562 143.144531 C 183.34375 142.621094 180.226562 139.660156 179.484375 135.851562 L 181.316406 136.867188 C 181.90625 137.191406 182.648438 136.976562 182.972656 136.386719 C 183.296875 135.796875 183.082031 135.058594 182.492188 134.730469 L 178.71875 132.648438 C 178.289062 132.414062 177.761719 132.457031 177.378906 132.753906 L 173.980469 135.414062 C 173.453125 135.828125 173.359375 136.59375 173.773438 137.125 C 174.015625 137.429688 174.371094 137.59375 174.734375 137.59375 C 175 137.59375 175.261719 137.507812 175.488281 137.332031 L 177.058594 136.097656 C 178.011719 141.527344 182.75 145.667969 188.445312 145.667969 C 194.140625 145.667969 198.878906 141.53125 199.832031 136.105469 L 201.398438 137.332031 C 201.621094 137.507812 201.886719 137.59375 202.148438 137.59375 C 202.511719 137.59375 202.871094 137.433594 203.109375 137.125 C 203.519531 136.597656 203.429688 135.832031 202.898438 135.414062 Z M 188.441406 120.039062 C 189.113281 120.039062 189.660156 120.585938 189.660156 121.257812 C 189.660156 121.929688 189.113281 122.476562 188.441406 122.476562 C 187.773438 122.476562 187.226562 121.929688 187.226562 121.257812 C 187.226562 120.582031 187.773438 120.039062 188.441406 120.039062 Z M 188.441406 120.039062 " fill-opacity="1" fill-rule="nonzero"/></g><g clip-path="url(#7513ab8005)"><g clip-path="url(#57d159293a)"><path fill="#1B3A6B" d="M 163.550781 106.746094 L 213.332031 106.746094 L 213.332031 156.527344 L 163.550781 156.527344 Z M 163.550781 106.746094 " fill-opacity="1" fill-rule="nonzero"/></g></g>
</svg>