<svg xmlns="http://www.w3.org/2000/svg" xmlns:xlink="http://www.w3.org/1999/xlink" width="500" zoomAndPan="magnify" viewBox="0 0 375 374.999991" height="500" preserveAspectRatio="xMidYMid meet" version="1.0"><defs><g/><clipPath id="22a685eeb8"><path d="M 173.820312 117.015625 L 203.070312 117.015625 L 203.070312 146 L 173.820312 146 Z M 173.820312 117.015625 " clip-rule="nonzero"/></clipPath><clipPath id="7513ab8005"><path d="M 163.550781 106.746094 L 213.332031 106.746094 L 213.332031 156.527344 L 163.550781 156.527344 Z M 163.550781 106.746094 " clip-rule="nonzero"/></clipPath><clipPath id="57d159293a"><path d="M 188.441406 156.527344 C 181.796875 156.527344 175.539062 153.9375 170.84375 149.234375 C 166.136719 144.539062 163.550781 138.28125 163.550781 131.636719 C 163.550781 124.992188 166.136719 118.734375 170.84375 114.039062 C 175.539062 109.332031 181.796875 106.746094 188.441406 106.746094 C 195.085938 106.746094 201.34375 109.332031 206.039062 114.039062 C 210.746094 118.742188 213.332031 124.992188 213.332031 131.636719 C 213.332031 138.28125 210.746094 144.539062 206.039062 149.234375 C 201.34375 153.9375 195.085938 156.527344 188.441406 156.527344 Z M 188.441406 108.238281 C 182.195312 108.238281 176.316406 110.675781 171.898438 115.09375 C 167.480469 119.511719 165.042969 125.390625 165.042969 131.636719 C 165.042969 137.882812 167.480469 143.761719 171.898438 148.179688 C 176.316406 152.597656 182.195312 155.035156 188.441406 155.035156 C 194.6875 155.035156 200.566406 152.597656 204.984375 148.179688 C 209.402344 143.761719 211.839844 137.882812 211.839844 131.636719 C 211.839844 125.390625 209.402344 119.511719 204.984375 115.09375 C 200.566406 110.675781 194.6875 108.238281 188.441406 108.238281 Z M 188.441406 108.238281 " clip-rule="nonzero"/></clipPath></defs><rect x="-37.5" width="450" fill="#ffffff" y="-37.499999" height="449.999989" fill-opacity="1"/><rect x="-37.5" width="450" fill="#f1f1f1" y="-37.499999" height="449.999989" fill-opacity="1"/><g fill="#0003ff" fill-opacity="1"><g transform="translate(78.152596, 211.888726)"><g><path d="M 26.5625 -7.90625 C 25.601562 -5.425781 24.03125 -3.4375 21.84375 -1.9375 C 19.644531 -0.394531 17.226562 0.375 14.59375 0.375 C 11.019531 0.375 7.96875 -0.941406 5.4375 -3.578125 C 2.945312 -6.160156 1.703125 -9.257812 1.703125 -12.875 C 1.703125 -14.675781 2.035156 -16.390625 2.703125 -18.015625 C 3.359375 -19.609375 4.269531 -21.015625 5.4375 -22.234375 C 7.96875 -24.867188 11.019531 -26.1875 14.59375 -26.1875 C 17.226562 -26.1875 19.632812 -25.4375 21.8125 -23.9375 C 23.988281 -22.414062 25.5625 -20.425781 26.53125 -17.96875 L 23.59375 -17.96875 C 22.207031 -20.53125 20.128906 -22.226562 17.359375 -23.0625 C 16.453125 -23.320312 15.40625 -23.453125 14.21875 -23.453125 C 13.019531 -23.453125 11.800781 -23.171875 10.5625 -22.609375 C 9.320312 -22.023438 8.242188 -21.253906 7.328125 -20.296875 C 5.359375 -18.242188 4.375 -15.769531 4.375 -12.875 C 4.375 -10.019531 5.359375 -7.566406 7.328125 -5.515625 C 9.335938 -3.410156 11.757812 -2.359375 14.59375 -2.359375 C 16.519531 -2.359375 18.289062 -2.863281 19.90625 -3.875 C 21.507812 -4.882812 22.753906 -6.226562 23.640625 -7.90625 Z M 26.5625 -7.90625 "/></g></g></g><g fill="#0003ff" fill-opacity="1"><g transform="translate(105.848933, 211.888726)"><g><path d="M 5.515625 0 L 2.84375 0 L 2.84375 -28.5 L 5.515625 -28.5 Z M 5.515625 0 "/></g></g></g><g fill="#0003ff" fill-opacity="1"><g transform="translate(114.207228, 211.888726)"><g><path d="M 16.15625 -8.359375 C 16.15625 -9.984375 15.597656 -11.398438 14.484375 -12.609375 C 13.335938 -13.828125 11.929688 -14.4375 10.265625 -14.4375 C 8.585938 -14.4375 7.191406 -13.828125 6.078125 -12.609375 C 4.941406 -11.398438 4.375 -9.984375 4.375 -8.359375 C 4.375 -6.734375 4.941406 -5.316406 6.078125 -4.109375 C 7.191406 -2.890625 8.585938 -2.28125 10.265625 -2.28125 C 11.929688 -2.28125 13.335938 -2.890625 14.484375 -4.109375 C 15.597656 -5.316406 16.15625 -6.734375 16.15625 -8.359375 Z M 18.8125 0 L 16.15625 0 L 16.15625 -2.84375 C 16 -2.644531 15.84375 -2.457031 15.6875 -2.28125 C 14.09375 -0.507812 12.144531 0.375 9.84375 0.375 C 7.539062 0.375 5.601562 -0.507812 4.03125 -2.28125 C 2.476562 -4 1.703125 -6.023438 1.703125 -8.359375 C 1.703125 -10.691406 2.476562 -12.71875 4.03125 -14.4375 C 5.601562 -16.207031 7.539062 -17.09375 9.84375 -17.09375 C 12.144531 -17.09375 14.09375 -16.207031 15.6875 -14.4375 C 15.84375 -14.257812 16 -14.070312 16.15625 -13.875 L 16.15625 -16.71875 L 18.8125 -16.71875 Z M 18.8125 0 "/></g></g></g><g fill="#0003ff" fill-opacity="1"><g transform="translate(135.862801, 211.888726)"><g><path d="M 5.546875 -22.5 C 5.878906 -22.164062 6.046875 -21.769531 6.046875 -21.3125 C 6.046875 -20.832031 5.878906 -20.429688 5.546875 -20.109375 C 5.210938 -19.773438 4.820312 -19.609375 4.375 -19.609375 C 3.882812 -19.609375 3.476562 -19.773438 3.15625 -20.109375 C 2.820312 -20.429688 2.65625 -20.832031 2.65625 -21.3125 C 2.65625 -21.769531 2.820312 -22.164062 3.15625 -22.5 C 3.476562 -22.820312 3.882812 -22.984375 4.375 -22.984375 C 4.820312 -22.984375 5.210938 -22.820312 5.546875 -22.5 Z M 5.703125 0 L 3.046875 0 L 3.046875 -16.71875 L 5.703125 -16.71875 Z M 5.703125 0 "/></g></g></g><g fill="#0003ff" fill-opacity="1"><g transform="translate(144.563023, 211.888726)"><g><path d="M 24.046875 -0.078125 L 24.046875 -10.53125 C 24.046875 -12.25 23.503906 -13.460938 22.421875 -14.171875 C 22.035156 -14.398438 21.453125 -14.515625 20.671875 -14.515625 C 19.890625 -14.515625 19.15625 -14.285156 18.46875 -13.828125 C 17.78125 -13.367188 17.234375 -12.785156 16.828125 -12.078125 C 16.679688 -11.804688 16.546875 -11.503906 16.421875 -11.171875 C 16.421875 -10.972656 16.421875 -10.757812 16.421875 -10.53125 L 16.421875 -0.078125 L 13.75 -0.078125 L 13.75 -10.53125 C 13.75 -12.25 13.207031 -13.460938 12.125 -14.171875 C 11.738281 -14.398438 11.15625 -14.515625 10.375 -14.515625 C 9.59375 -14.515625 8.859375 -14.285156 8.171875 -13.828125 C 7.484375 -13.367188 6.9375 -12.785156 6.53125 -12.078125 C 6 -11.140625 5.660156 -9.988281 5.515625 -8.625 L 5.515625 -0.078125 L 2.84375 -0.078125 L 2.84375 -16.796875 L 5.515625 -16.796875 L 5.515625 -14.140625 C 6.015625 -14.992188 6.644531 -15.6875 7.40625 -16.21875 C 8.269531 -16.851562 9.285156 -17.171875 10.453125 -17.171875 C 11.617188 -17.171875 12.554688 -16.992188 13.265625 -16.640625 C 13.972656 -16.265625 14.566406 -15.769531 15.046875 -15.15625 C 15.296875 -14.800781 15.523438 -14.410156 15.734375 -13.984375 C 16.234375 -14.898438 16.890625 -15.644531 17.703125 -16.21875 C 18.566406 -16.851562 19.582031 -17.171875 20.75 -17.171875 C 21.914062 -17.171875 22.851562 -16.992188 23.5625 -16.640625 C 24.269531 -16.265625 24.863281 -15.769531 25.34375 -15.15625 C 26.257812 -13.96875 26.71875 -12.425781 26.71875 -10.53125 L 26.71875 -0.078125 Z M 24.046875 -0.078125 "/></g></g></g><g fill="#0003ff" fill-opacity="1"><g transform="translate(173.5511, 211.888726)"><g/></g></g><g fill="#0003ff" fill-opacity="1"><g transform="translate(183.808999, 211.888726)"><g><path d="M 7.03125 -9.5 L 16.421875 -9.5 L 11.734375 -21.390625 Z M 23.0625 0 L 20.171875 0 L 17.40625 -7.03125 L 6.046875 -7.03125 L 3.265625 0 L 0.375 0 L 11.734375 -27.625 Z M 23.0625 0 "/></g></g></g><g fill="#0003ff" fill-opacity="1"><g transform="translate(207.250206, 211.888726)"><g><path d="M 14.40625 0 L 14.40625 -10.453125 C 14.40625 -11.535156 14.164062 -12.472656 13.6875 -13.265625 C 13.175781 -14.023438 12.347656 -14.40625 11.203125 -14.40625 C 10.066406 -14.40625 9.144531 -14.1875 8.4375 -13.75 C 7.726562 -13.320312 7.15625 -12.765625 6.71875 -12.078125 C 5.914062 -10.816406 5.515625 -9.117188 5.515625 -6.984375 L 5.515625 0 L 2.84375 0 L 2.84375 -16.71875 L 5.515625 -16.71875 L 5.515625 -13.828125 C 6.066406 -14.765625 6.773438 -15.539062 7.640625 -16.15625 C 8.546875 -16.757812 9.597656 -17.0625 10.796875 -17.0625 C 11.984375 -17.0625 12.945312 -16.894531 13.6875 -16.5625 C 14.414062 -16.207031 15.035156 -15.738281 15.546875 -15.15625 C 16.554688 -13.96875 17.0625 -12.398438 17.0625 -10.453125 L 17.0625 0 Z M 14.40625 0 "/></g></g></g><g fill="#0003ff" fill-opacity="1"><g transform="translate(226.588259, 211.888726)"><g><path d="M 18.46875 -10.71875 L 15.578125 -10.71875 C 15.117188 -11.78125 14.410156 -12.640625 13.453125 -13.296875 C 12.492188 -13.953125 11.519531 -14.28125 10.53125 -14.28125 C 9.539062 -14.28125 8.691406 -14.128906 7.984375 -13.828125 C 7.273438 -13.503906 6.664062 -13.078125 6.15625 -12.546875 C 5.019531 -11.347656 4.453125 -9.953125 4.453125 -8.359375 C 4.453125 -6.734375 5.019531 -5.34375 6.15625 -4.1875 C 7.269531 -2.988281 8.640625 -2.390625 10.265625 -2.390625 C 11.328125 -2.390625 12.3125 -2.671875 13.21875 -3.234375 C 14.101562 -3.785156 14.800781 -4.53125 15.3125 -5.46875 L 18.3125 -5.46875 C 17.375 -2.78125 15.5625 -0.984375 12.875 -0.078125 C 12.039062 0.222656 11.09375 0.375 10.03125 0.375 C 8.96875 0.375 7.914062 0.132812 6.875 -0.34375 C 5.832031 -0.800781 4.9375 -1.429688 4.1875 -2.234375 C 2.53125 -3.960938 1.703125 -6.003906 1.703125 -8.359375 C 1.703125 -10.742188 2.53125 -12.785156 4.1875 -14.484375 C 5.851562 -16.203125 7.878906 -17.0625 10.265625 -17.0625 C 12.179688 -17.0625 13.914062 -16.46875 15.46875 -15.28125 C 16.9375 -14.132812 17.9375 -12.613281 18.46875 -10.71875 Z M 18.46875 -10.71875 "/></g></g></g><g fill="#0003ff" fill-opacity="1"><g transform="translate(246.382211, 211.888726)"><g><path d="M 5.515625 0 L 2.84375 0 L 2.84375 -28.5 L 5.515625 -28.5 L 5.515625 -13.828125 C 6.066406 -14.765625 6.773438 -15.539062 7.640625 -16.15625 C 8.546875 -16.757812 9.597656 -17.0625 10.796875 -17.0625 C 11.984375 -17.0625 12.945312 -16.894531 13.6875 -16.5625 C 14.414062 -16.207031 15.035156 -15.738281 15.546875 -15.15625 C 16.554688 -13.96875 17.0625 -12.398438 17.0625 -10.453125 L 17.0625 0 L 14.40625 0 L 14.40625 -10.453125 C 14.40625 -11.535156 14.164062 -12.472656 13.6875 -13.265625 C 13.175781 -14.023438 12.347656 -14.40625 11.203125 -14.40625 C 10.066406 -14.40625 9.144531 -14.226562 8.4375 -13.875 C 7.726562 -13.488281 7.15625 -12.96875 6.71875 -12.3125 C 5.914062 -11.09375 5.515625 -9.316406 5.515625 -6.984375 Z M 5.515625 0 "/></g></g></g><g fill="#0003ff" fill-opacity="1"><g transform="translate(265.720264, 211.888726)"><g><path d="M 16.53125 -8.4375 C 16.53125 -10.101562 15.9375 -11.535156 14.75 -12.734375 C 13.550781 -13.921875 12.117188 -14.515625 10.453125 -14.515625 C 8.773438 -14.515625 7.34375 -13.921875 6.15625 -12.734375 C 4.96875 -11.535156 4.375 -10.101562 4.375 -8.4375 C 4.375 -6.789062 4.96875 -5.375 6.15625 -4.1875 C 7.34375 -2.988281 8.773438 -2.390625 10.453125 -2.390625 C 12.117188 -2.390625 13.550781 -2.988281 14.75 -4.1875 C 15.9375 -5.375 16.53125 -6.789062 16.53125 -8.4375 Z M 19.1875 -8.4375 C 19.1875 -6 18.335938 -3.945312 16.640625 -2.28125 C 14.890625 -0.582031 12.828125 0.265625 10.453125 0.265625 C 8.066406 0.265625 6.015625 -0.582031 4.296875 -2.28125 C 2.566406 -3.945312 1.703125 -6 1.703125 -8.4375 C 1.703125 -10.84375 2.566406 -12.90625 4.296875 -14.625 C 5.992188 -16.320312 8.046875 -17.171875 10.453125 -17.171875 C 12.859375 -17.171875 14.921875 -16.320312 16.640625 -14.625 C 18.335938 -12.90625 19.1875 -10.84375 19.1875 -8.4375 Z M 19.1875 -8.4375 "/></g></g></g><g fill="#0003ff" fill-opacity="1"><g transform="translate(286.616007, 211.888726)"><g><path d="M 11.4375 -13.265625 C 10.832031 -13.816406 10.175781 -14.09375 9.46875 -14.09375 C 8.78125 -14.09375 8.195312 -13.90625 7.71875 -13.53125 C 7.207031 -13.125 6.785156 -12.640625 6.453125 -12.078125 C 5.828125 -10.960938 5.515625 -9.722656 5.515625 -8.359375 L 5.515625 0 L 2.84375 0 L 2.84375 -16.71875 L 5.515625 -16.71875 L 5.515625 -13.265625 L 5.625 -13.953125 C 6.507812 -16.023438 7.890625 -17.0625 9.765625 -17.0625 C 10.347656 -17.0625 10.90625 -16.945312 11.4375 -16.71875 Z M 11.4375 -13.265625 "/></g></g></g><g fill="#0003ff" fill-opacity="1"><g transform="translate(98.288667, 253.600764)"><g><path d="M 2.0625 -1.375 L 2.515625 -1.375 C 2.898438 -1.375 3.234375 -1.460938 3.515625 -1.640625 C 3.804688 -1.816406 4.03125 -2.054688 4.1875 -2.359375 C 4.351562 -2.671875 4.4375 -3.007812 4.4375 -3.375 C 4.4375 -3.75 4.351562 -4.085938 4.1875 -4.390625 C 4.03125 -4.691406 3.804688 -4.929688 3.515625 -5.109375 C 3.234375 -5.285156 2.898438 -5.375 2.515625 -5.375 L 2.0625 -5.375 Z M 0.59375 -6.75 L 2.609375 -6.75 C 3.078125 -6.75 3.515625 -6.660156 3.921875 -6.484375 C 4.335938 -6.316406 4.695312 -6.082031 5 -5.78125 C 5.300781 -5.476562 5.535156 -5.117188 5.703125 -4.703125 C 5.878906 -4.296875 5.96875 -3.851562 5.96875 -3.375 C 5.96875 -2.894531 5.878906 -2.453125 5.703125 -2.046875 C 5.535156 -1.640625 5.300781 -1.28125 5 -0.96875 C 4.695312 -0.664062 4.335938 -0.425781 3.921875 -0.25 C 3.515625 -0.0820312 3.078125 0 2.609375 0 L 0.59375 0 Z M 0.59375 -6.75 "/></g></g></g><g fill="#0003ff" fill-opacity="1"><g transform="translate(108.176665, 253.600764)"><g><path d="M 2.09375 -2.421875 L 2.09375 0 L 0.59375 0 L 0.59375 -6.75 L 3.125 -6.75 C 3.488281 -6.75 3.828125 -6.660156 4.140625 -6.484375 C 4.460938 -6.304688 4.71875 -6.050781 4.90625 -5.71875 C 5.101562 -5.394531 5.203125 -5.019531 5.203125 -4.59375 C 5.203125 -4.21875 5.128906 -3.882812 4.984375 -3.59375 C 4.847656 -3.300781 4.660156 -3.0625 4.421875 -2.875 C 4.191406 -2.6875 3.9375 -2.554688 3.65625 -2.484375 L 5.59375 0 L 3.703125 0 Z M 2.875 -5.578125 L 2.09375 -5.578125 L 2.09375 -3.59375 L 2.875 -3.59375 C 3.09375 -3.59375 3.296875 -3.675781 3.484375 -3.84375 C 3.679688 -4.019531 3.78125 -4.269531 3.78125 -4.59375 C 3.78125 -4.90625 3.679688 -5.144531 3.484375 -5.3125 C 3.296875 -5.488281 3.09375 -5.578125 2.875 -5.578125 Z M 2.875 -5.578125 "/></g></g></g><g fill="#0003ff" fill-opacity="1"><g transform="translate(117.229908, 253.600764)"><g><path d="M 5.8125 -3.390625 C 5.8125 -3.742188 5.71875 -4.066406 5.53125 -4.359375 C 5.34375 -4.660156 5.097656 -4.90625 4.796875 -5.09375 C 4.503906 -5.28125 4.179688 -5.375 3.828125 -5.375 C 3.484375 -5.375 3.15625 -5.28125 2.84375 -5.09375 C 2.539062 -4.90625 2.296875 -4.660156 2.109375 -4.359375 C 1.929688 -4.066406 1.84375 -3.742188 1.84375 -3.390625 C 1.84375 -3.046875 1.929688 -2.71875 2.109375 -2.40625 C 2.296875 -2.101562 2.539062 -1.859375 2.84375 -1.671875 C 3.15625 -1.484375 3.484375 -1.390625 3.828125 -1.390625 C 4.179688 -1.390625 4.503906 -1.484375 4.796875 -1.671875 C 5.097656 -1.859375 5.34375 -2.101562 5.53125 -2.40625 C 5.71875 -2.71875 5.8125 -3.046875 5.8125 -3.390625 Z M 7.296875 -3.375 C 7.296875 -2.914062 7.203125 -2.472656 7.015625 -2.046875 C 6.835938 -1.628906 6.585938 -1.257812 6.265625 -0.9375 C 5.941406 -0.613281 5.570312 -0.359375 5.15625 -0.171875 C 4.738281 0.00390625 4.296875 0.09375 3.828125 0.09375 C 3.359375 0.09375 2.914062 0.00390625 2.5 -0.171875 C 2.082031 -0.359375 1.710938 -0.613281 1.390625 -0.9375 C 1.066406 -1.257812 0.8125 -1.628906 0.625 -2.046875 C 0.4375 -2.472656 0.34375 -2.914062 0.34375 -3.375 C 0.34375 -3.84375 0.4375 -4.285156 0.625 -4.703125 C 0.8125 -5.128906 1.066406 -5.5 1.390625 -5.8125 C 1.710938 -6.132812 2.082031 -6.390625 2.5 -6.578125 C 2.914062 -6.765625 3.359375 -6.859375 3.828125 -6.859375 C 4.296875 -6.859375 4.738281 -6.765625 5.15625 -6.578125 C 5.570312 -6.390625 5.941406 -6.132812 6.265625 -5.8125 C 6.585938 -5.5 6.835938 -5.128906 7.015625 -4.703125 C 7.203125 -4.285156 7.296875 -3.84375 7.296875 -3.375 Z M 7.296875 -3.375 "/></g></g></g><g fill="#0003ff" fill-opacity="1"><g transform="translate(128.459485, 253.600764)"><g><path d="M 2.09375 -2.421875 L 2.09375 0 L 0.59375 0 L 0.59375 -6.75 L 3.125 -6.75 C 3.488281 -6.75 3.828125 -6.660156 4.140625 -6.484375 C 4.460938 -6.304688 4.71875 -6.050781 4.90625 -5.71875 C 5.101562 -5.394531 5.203125 -5.019531 5.203125 -4.59375 C 5.203125 -4.132812 5.101562 -3.742188 4.90625 -3.421875 C 4.71875 -3.097656 4.460938 -2.847656 4.140625 -2.671875 C 3.828125 -2.503906 3.488281 -2.421875 3.125 -2.421875 Z M 2.875 -5.578125 L 2.09375 -5.578125 L 2.09375 -3.59375 L 2.875 -3.59375 C 3.09375 -3.59375 3.296875 -3.675781 3.484375 -3.84375 C 3.679688 -4.019531 3.78125 -4.269531 3.78125 -4.59375 C 3.78125 -4.90625 3.679688 -5.144531 3.484375 -5.3125 C 3.296875 -5.488281 3.09375 -5.578125 2.875 -5.578125 Z M 2.875 -5.578125 "/></g></g></g><g fill="#0003ff" fill-opacity="1"><g transform="translate(137.383536, 253.600764)"><g/></g></g><g fill="#0003ff" fill-opacity="1"><g transform="translate(143.445568, 253.600764)"><g><path d="M 3.46875 -5.40625 L 3.46875 0 L 1.984375 0 L 1.984375 -5.40625 L 0.046875 -5.40625 L 0.046875 -6.75 L 5.390625 -6.75 L 5.390625 -5.40625 Z M 3.46875 -5.40625 "/></g></g></g><g fill="#0003ff" fill-opacity="1"><g transform="translate(152.469, 253.600764)"><g><path d="M 4.3125 -6.75 L 5.90625 -6.75 L 5.90625 0 L 4.3125 0 L 4.3125 -2.71875 L 2.09375 -2.71875 L 2.09375 0 L 0.59375 0 L 0.59375 -6.75 L 2.09375 -6.75 L 2.09375 -4.0625 L 4.3125 -4.0625 Z M 4.3125 -6.75 "/></g></g></g><g fill="#0003ff" fill-opacity="1"><g transform="translate(162.545814, 253.600764)"><g><path d="M 4.515625 -1.34375 L 4.515625 0 L 0.59375 0 L 0.59375 -6.75 L 4.515625 -6.75 L 4.515625 -5.40625 L 2.09375 -5.40625 L 2.09375 -4.0625 L 4.40625 -4.0625 L 4.40625 -2.71875 L 2.09375 -2.71875 L 2.09375 -1.34375 Z M 4.515625 -1.34375 "/></g></g></g><g fill="#0003ff" fill-opacity="1"><g transform="translate(171.231369, 253.600764)"><g/></g></g><g fill="#0003ff" fill-opacity="1"><g transform="translate(177.293402, 253.600764)"><g><path d="M 3.96875 -5.46875 C 3.613281 -5.46875 3.285156 -5.367188 2.984375 -5.171875 C 2.691406 -4.984375 2.453125 -4.726562 2.265625 -4.40625 C 2.085938 -4.09375 2 -3.742188 2 -3.359375 C 2 -2.984375 2.085938 -2.632812 2.265625 -2.3125 C 2.453125 -1.988281 2.691406 -1.726562 2.984375 -1.53125 C 3.285156 -1.34375 3.613281 -1.25 3.96875 -1.25 C 4.1875 -1.25 4.414062 -1.28125 4.65625 -1.34375 C 4.90625 -1.40625 5.132812 -1.523438 5.34375 -1.703125 C 5.550781 -1.890625 5.710938 -2.148438 5.828125 -2.484375 L 4.109375 -2.484375 L 4.109375 -3.609375 L 7.4375 -3.609375 L 7.4375 -3.375 C 7.4375 -2.894531 7.347656 -2.445312 7.171875 -2.03125 C 6.992188 -1.613281 6.742188 -1.242188 6.421875 -0.921875 C 6.109375 -0.597656 5.742188 -0.347656 5.328125 -0.171875 C 4.910156 0.00390625 4.457031 0.09375 3.96875 0.09375 C 3.5 0.09375 3.050781 0.00390625 2.625 -0.171875 C 2.207031 -0.359375 1.835938 -0.609375 1.515625 -0.921875 C 1.203125 -1.242188 0.953125 -1.613281 0.765625 -2.03125 C 0.585938 -2.445312 0.5 -2.894531 0.5 -3.375 C 0.5 -3.851562 0.585938 -4.300781 0.765625 -4.71875 C 0.953125 -5.144531 1.203125 -5.515625 1.515625 -5.828125 C 1.835938 -6.148438 2.207031 -6.398438 2.625 -6.578125 C 3.050781 -6.765625 3.5 -6.859375 3.96875 -6.859375 C 4.46875 -6.859375 4.9375 -6.753906 5.375 -6.546875 C 5.820312 -6.347656 6.210938 -6.070312 6.546875 -5.71875 C 6.878906 -5.363281 7.125 -4.953125 7.28125 -4.484375 L 5.640625 -4.484375 C 5.472656 -4.835938 5.234375 -5.085938 4.921875 -5.234375 C 4.617188 -5.390625 4.300781 -5.46875 3.96875 -5.46875 Z M 3.96875 -5.46875 "/></g></g></g><g fill="#0003ff" fill-opacity="1"><g transform="translate(188.662105, 253.600764)"><g><path d="M 4.546875 -6.75 L 6.03125 -6.75 L 6.03125 -2.640625 C 6.03125 -1.734375 5.785156 -1.050781 5.296875 -0.59375 C 4.804688 -0.132812 4.117188 0.09375 3.234375 0.09375 C 2.359375 0.09375 1.675781 -0.132812 1.1875 -0.59375 C 0.695312 -1.050781 0.453125 -1.734375 0.453125 -2.640625 L 0.453125 -6.75 L 1.9375 -6.75 L 1.9375 -2.859375 C 1.9375 -2.390625 2.023438 -2.023438 2.203125 -1.765625 C 2.390625 -1.515625 2.734375 -1.390625 3.234375 -1.390625 C 3.742188 -1.390625 4.085938 -1.515625 4.265625 -1.765625 C 4.453125 -2.023438 4.546875 -2.390625 4.546875 -2.859375 Z M 4.546875 -6.75 "/></g></g></g><g fill="#0003ff" fill-opacity="1"><g transform="translate(198.719035, 253.600764)"><g><path d="M 4.515625 -1.34375 L 4.515625 0 L 0.59375 0 L 0.59375 -6.75 L 4.515625 -6.75 L 4.515625 -5.40625 L 2.09375 -5.40625 L 2.09375 -4.0625 L 4.40625 -4.0625 L 4.40625 -2.71875 L 2.09375 -2.71875 L 2.09375 -1.34375 Z M 4.515625 -1.34375 "/></g></g></g><g fill="#0003ff" fill-opacity="1"><g transform="translate(207.404596, 253.600764)"><g><path d="M 3.21875 -1.046875 C 3.375 -1.046875 3.546875 -1.070312 3.734375 -1.125 C 3.921875 -1.175781 4.082031 -1.257812 4.21875 -1.375 C 4.351562 -1.488281 4.421875 -1.644531 4.421875 -1.84375 C 4.421875 -2.03125 4.347656 -2.179688 4.203125 -2.296875 C 4.066406 -2.410156 3.878906 -2.503906 3.640625 -2.578125 C 3.410156 -2.648438 3.15625 -2.71875 2.875 -2.78125 C 2.601562 -2.84375 2.328125 -2.914062 2.046875 -3 C 1.773438 -3.09375 1.519531 -3.210938 1.28125 -3.359375 C 1.050781 -3.503906 0.863281 -3.691406 0.71875 -3.921875 C 0.582031 -4.148438 0.515625 -4.445312 0.515625 -4.8125 C 0.515625 -5.164062 0.585938 -5.46875 0.734375 -5.71875 C 0.878906 -5.976562 1.070312 -6.191406 1.3125 -6.359375 C 1.550781 -6.523438 1.820312 -6.648438 2.125 -6.734375 C 2.425781 -6.816406 2.734375 -6.859375 3.046875 -6.859375 C 3.503906 -6.859375 3.9375 -6.785156 4.34375 -6.640625 C 4.75 -6.492188 5.078125 -6.257812 5.328125 -5.9375 C 5.585938 -5.625 5.722656 -5.210938 5.734375 -4.703125 L 4.296875 -4.703125 C 4.253906 -5.054688 4.128906 -5.300781 3.921875 -5.4375 C 3.722656 -5.570312 3.4375 -5.640625 3.0625 -5.640625 C 2.925781 -5.640625 2.78125 -5.613281 2.625 -5.5625 C 2.46875 -5.519531 2.332031 -5.445312 2.21875 -5.34375 C 2.113281 -5.238281 2.0625 -5.097656 2.0625 -4.921875 C 2.0625 -4.753906 2.128906 -4.617188 2.265625 -4.515625 C 2.410156 -4.421875 2.597656 -4.335938 2.828125 -4.265625 C 3.066406 -4.203125 3.320312 -4.140625 3.59375 -4.078125 C 3.875 -4.023438 4.148438 -3.953125 4.421875 -3.859375 C 4.703125 -3.773438 4.957031 -3.660156 5.1875 -3.515625 C 5.414062 -3.367188 5.601562 -3.175781 5.75 -2.9375 C 5.894531 -2.695312 5.96875 -2.390625 5.96875 -2.015625 C 5.96875 -1.617188 5.882812 -1.28125 5.71875 -1 C 5.5625 -0.726562 5.347656 -0.503906 5.078125 -0.328125 C 4.816406 -0.160156 4.515625 -0.0390625 4.171875 0.03125 C 3.835938 0.113281 3.5 0.15625 3.15625 0.15625 C 2.664062 0.15625 2.203125 0.0703125 1.765625 -0.09375 C 1.328125 -0.257812 0.972656 -0.519531 0.703125 -0.875 C 0.441406 -1.226562 0.304688 -1.675781 0.296875 -2.21875 L 1.8125 -2.21875 C 1.832031 -1.820312 1.976562 -1.523438 2.25 -1.328125 C 2.53125 -1.140625 2.851562 -1.046875 3.21875 -1.046875 Z M 3.21875 -1.046875 "/></g></g></g><g fill="#0003ff" fill-opacity="1"><g transform="translate(217.242898, 253.600764)"><g><path d="M 3.21875 -1.046875 C 3.375 -1.046875 3.546875 -1.070312 3.734375 -1.125 C 3.921875 -1.175781 4.082031 -1.257812 4.21875 -1.375 C 4.351562 -1.488281 4.421875 -1.644531 4.421875 -1.84375 C 4.421875 -2.03125 4.347656 -2.179688 4.203125 -2.296875 C 4.066406 -2.410156 3.878906 -2.503906 3.640625 -2.578125 C 3.410156 -2.648438 3.15625 -2.71875 2.875 -2.78125 C 2.601562 -2.84375 2.328125 -2.914062 2.046875 -3 C 1.773438 -3.09375 1.519531 -3.210938 1.28125 -3.359375 C 1.050781 -3.503906 0.863281 -3.691406 0.71875 -3.921875 C 0.582031 -4.148438 0.515625 -4.445312 0.515625 -4.8125 C 0.515625 -5.164062 0.585938 -5.46875 0.734375 -5.71875 C 0.878906 -5.976562 1.070312 -6.191406 1.3125 -6.359375 C 1.550781 -6.523438 1.820312 -6.648438 2.125 -6.734375 C 2.425781 -6.816406 2.734375 -6.859375 3.046875 -6.859375 C 3.503906 -6.859375 3.9375 -6.785156 4.34375 -6.640625 C 4.75 -6.492188 5.078125 -6.257812 5.328125 -5.9375 C 5.585938 -5.625 5.722656 -5.210938 5.734375 -4.703125 L 4.296875 -4.703125 C 4.253906 -5.054688 4.128906 -5.300781 3.921875 -5.4375 C 3.722656 -5.570312 3.4375 -5.640625 3.0625 -5.640625 C 2.925781 -5.640625 2.78125 -5.613281 2.625 -5.5625 C 2.46875 -5.519531 2.332031 -5.445312 2.21875 -5.34375 C 2.113281 -5.238281 2.0625 -5.097656 2.0625 -4.921875 C 2.0625 -4.753906 2.128906 -4.617188 2.265625 -4.515625 C 2.410156 -4.421875 2.597656 -4.335938 2.828125 -4.265625 C 3.066406 -4.203125 3.320312 -4.140625 3.59375 -4.078125 C 3.875 -4.023438 4.148438 -3.953125 4.421875 -3.859375 C 4.703125 -3.773438 4.957031 -3.660156 5.1875 -3.515625 C 5.414062 -3.367188 5.601562 -3.175781 5.75 -2.9375 C 5.894531 -2.695312 5.96875 -2.390625 5.96875 -2.015625 C 5.96875 -1.617188 5.882812 -1.28125 5.71875 -1 C 5.5625 -0.726562 5.347656 -0.503906 5.078125 -0.328125 C 4.816406 -0.160156 4.515625 -0.0390625 4.171875 0.03125 C 3.835938 0.113281 3.5 0.15625 3.15625 0.15625 C 2.664062 0.15625 2.203125 0.0703125 1.765625 -0.09375 C 1.328125 -0.257812 0.972656 -0.519531 0.703125 -0.875 C 0.441406 -1.226562 0.304688 -1.675781 0.296875 -2.21875 L 1.8125 -2.21875 C 1.832031 -1.820312 1.976562 -1.523438 2.25 -1.328125 C 2.53125 -1.140625 2.851562 -1.046875 3.21875 -1.046875 Z M 3.21875 -1.046875 "/></g></g></g><g fill="#0003ff" fill-opacity="1"><g transform="translate(227.0812, 253.600764)"><g><path d="M 9.015625 -6.75 L 7.71875 0 L 5.9375 0 L 4.546875 -4.734375 L 3.125 0 L 1.359375 0 L 0.046875 -6.75 L 1.6875 -6.75 L 2.484375 -2.09375 L 3.8125 -6.75 L 5.265625 -6.75 L 6.59375 -2.09375 L 7.390625 -6.75 Z M 9.015625 -6.75 "/></g></g></g><g fill="#0003ff" fill-opacity="1"><g transform="translate(239.731842, 253.600764)"><g><path d="M 5.8125 -3.390625 C 5.8125 -3.742188 5.71875 -4.066406 5.53125 -4.359375 C 5.34375 -4.660156 5.097656 -4.90625 4.796875 -5.09375 C 4.503906 -5.28125 4.179688 -5.375 3.828125 -5.375 C 3.484375 -5.375 3.15625 -5.28125 2.84375 -5.09375 C 2.539062 -4.90625 2.296875 -4.660156 2.109375 -4.359375 C 1.929688 -4.066406 1.84375 -3.742188 1.84375 -3.390625 C 1.84375 -3.046875 1.929688 -2.71875 2.109375 -2.40625 C 2.296875 -2.101562 2.539062 -1.859375 2.84375 -1.671875 C 3.15625 -1.484375 3.484375 -1.390625 3.828125 -1.390625 C 4.179688 -1.390625 4.503906 -1.484375 4.796875 -1.671875 C 5.097656 -1.859375 5.34375 -2.101562 5.53125 -2.40625 C 5.71875 -2.71875 5.8125 -3.046875 5.8125 -3.390625 Z M 7.296875 -3.375 C 7.296875 -2.914062 7.203125 -2.472656 7.015625 -2.046875 C 6.835938 -1.628906 6.585938 -1.257812 6.265625 -0.9375 C 5.941406 -0.613281 5.570312 -0.359375 5.15625 -0.171875 C 4.738281 0.00390625 4.296875 0.09375 3.828125 0.09375 C 3.359375 0.09375 2.914062 0.00390625 2.5 -0.171875 C 2.082031 -0.359375 1.710938 -0.613281 1.390625 -0.9375 C 1.066406 -1.257812 0.8125 -1.628906 0.625 -2.046875 C 0.4375 -2.472656 0.34375 -2.914062 0.34375 -3.375 C 0.34375 -3.84375 0.4375 -4.285156 0.625 -4.703125 C 0.8125 -5.128906 1.066406 -5.5 1.390625 -5.8125 C 1.710938 -6.132812 2.082031 -6.390625 2.5 -6.578125 C 2.914062 -6.765625 3.359375 -6.859375 3.828125 -6.859375 C 4.296875 -6.859375 4.738281 -6.765625 5.15625 -6.578125 C 5.570312 -6.390625 5.941406 -6.132812 6.265625 -5.8125 C 6.585938 -5.5 6.835938 -5.128906 7.015625 -4.703125 C 7.203125 -4.285156 7.296875 -3.84375 7.296875 -3.375 Z M 7.296875 -3.375 "/></g></g></g><g fill="#0003ff" fill-opacity="1"><g transform="translate(250.961425, 253.600764)"><g><path d="M 2.09375 -2.421875 L 2.09375 0 L 0.59375 0 L 0.59375 -6.75 L 3.125 -6.75 C 3.488281 -6.75 3.828125 -6.660156 4.140625 -6.484375 C 4.460938 -6.304688 4.71875 -6.050781 4.90625 -5.71875 C 5.101562 -5.394531 5.203125 -5.019531 5.203125 -4.59375 C 5.203125 -4.21875 5.128906 -3.882812 4.984375 -3.59375 C 4.847656 -3.300781 4.660156 -3.0625 4.421875 -2.875 C 4.191406 -2.6875 3.9375 -2.554688 3.65625 -2.484375 L 5.59375 0 L 3.703125 0 Z M 2.875 -5.578125 L 2.09375 -5.578125 L 2.09375 -3.59375 L 2.875 -3.59375 C 3.09375 -3.59375 3.296875 -3.675781 3.484375 -3.84375 C 3.679688 -4.019531 3.78125 -4.269531 3.78125 -4.59375 C 3.78125 -4.90625 3.679688 -5.144531 3.484375 -5.3125 C 3.296875 -5.488281 3.09375 -5.578125 2.875 -5.578125 Z M 2.875 -5.578125 "/></g></g></g><g fill="#0003ff" fill-opacity="1"><g transform="translate(260.014662, 253.600764)"><g><path d="M 2.09375 -3.015625 L 2.09375 0 L 0.59375 0 L 0.59375 -6.75 L 2.09375 -6.75 L 2.09375 -3.734375 L 4.21875 -6.75 L 6.125 -6.75 L 3.53125 -3.375 L 6.234375 0 L 4.21875 0 Z M 2.09375 -3.015625 "/></g></g></g><g fill="#0003ff" fill-opacity="1"><g transform="translate(269.723783, 253.600764)"><g><path d="M 0.515625 -0.765625 C 0.515625 -1.015625 0.597656 -1.222656 0.765625 -1.390625 C 0.941406 -1.554688 1.148438 -1.640625 1.390625 -1.640625 C 1.628906 -1.640625 1.832031 -1.554688 2 -1.390625 C 2.175781 -1.222656 2.265625 -1.015625 2.265625 -0.765625 C 2.265625 -0.523438 2.175781 -0.320312 2 -0.15625 C 1.832031 0.0078125 1.628906 0.09375 1.390625 0.09375 C 1.148438 0.09375 0.941406 0.0078125 0.765625 -0.15625 C 0.597656 -0.320312 0.515625 -0.523438 0.515625 -0.765625 Z M 0.515625 -0.765625 "/></g></g></g><g fill="#0003ff" fill-opacity="1"><g transform="translate(276.08553, 253.600764)"><g/></g></g><g fill="#0003ff" fill-opacity="1"><g transform="translate(105.425385, 265.600763)"><g><path d="M 4.265625 -2.578125 L 3.421875 -4.984375 L 2.5625 -2.578125 Z M 6.796875 0 L 5.203125 0 L 4.703125 -1.359375 L 2.140625 -1.359375 L 1.65625 0 L 0.046875 0 L 2.796875 -6.75 L 4.046875 -6.75 Z M 6.796875 0 "/></g></g></g><g fill="#0003ff" fill-opacity="1"><g transform="translate(115.850025, 265.600763)"><g><path d="M 5.90625 0 L 4.40625 0 L 2.09375 -4.21875 L 2.09375 0 L 0.59375 0 L 0.59375 -6.75 L 2.09375 -6.75 L 4.40625 -2.546875 L 4.40625 -6.75 L 5.90625 -6.75 Z M 5.90625 0 "/></g></g></g><g fill="#0003ff" fill-opacity="1"><g transform="translate(125.926844, 265.600763)"><g><path d="M 5.46875 -2.296875 L 7.140625 -2.296875 C 6.984375 -1.828125 6.742188 -1.410156 6.421875 -1.046875 C 6.097656 -0.691406 5.710938 -0.410156 5.265625 -0.203125 C 4.816406 -0.00390625 4.335938 0.09375 3.828125 0.09375 C 3.347656 0.09375 2.894531 0.00390625 2.46875 -0.171875 C 2.050781 -0.347656 1.679688 -0.597656 1.359375 -0.921875 C 1.046875 -1.242188 0.796875 -1.613281 0.609375 -2.03125 C 0.429688 -2.445312 0.34375 -2.894531 0.34375 -3.375 C 0.34375 -3.851562 0.429688 -4.300781 0.609375 -4.71875 C 0.796875 -5.144531 1.046875 -5.515625 1.359375 -5.828125 C 1.679688 -6.148438 2.050781 -6.398438 2.46875 -6.578125 C 2.894531 -6.765625 3.347656 -6.859375 3.828125 -6.859375 C 4.335938 -6.859375 4.8125 -6.753906 5.25 -6.546875 C 5.695312 -6.335938 6.082031 -6.054688 6.40625 -5.703125 C 6.726562 -5.347656 6.96875 -4.941406 7.125 -4.484375 L 5.46875 -4.484375 C 5.320312 -4.785156 5.097656 -5.023438 4.796875 -5.203125 C 4.492188 -5.378906 4.171875 -5.46875 3.828125 -5.46875 C 3.460938 -5.46875 3.128906 -5.375 2.828125 -5.1875 C 2.535156 -5 2.300781 -4.742188 2.125 -4.421875 C 1.945312 -4.109375 1.859375 -3.757812 1.859375 -3.375 C 1.859375 -2.988281 1.945312 -2.640625 2.125 -2.328125 C 2.300781 -2.015625 2.535156 -1.765625 2.828125 -1.578125 C 3.128906 -1.390625 3.460938 -1.296875 3.828125 -1.296875 C 4.179688 -1.296875 4.507812 -1.382812 4.8125 -1.5625 C 5.113281 -1.75 5.332031 -1.992188 5.46875 -2.296875 Z M 5.46875 -2.296875 "/></g></g></g><g fill="#0003ff" fill-opacity="1"><g transform="translate(136.888107, 265.600763)"><g><path d="M 4.3125 -6.75 L 5.90625 -6.75 L 5.90625 0 L 4.3125 0 L 4.3125 -2.71875 L 2.09375 -2.71875 L 2.09375 0 L 0.59375 0 L 0.59375 -6.75 L 2.09375 -6.75 L 2.09375 -4.0625 L 4.3125 -4.0625 Z M 4.3125 -6.75 "/></g></g></g><g fill="#0003ff" fill-opacity="1"><g transform="translate(146.964927, 265.600763)"><g><path d="M 5.8125 -3.390625 C 5.8125 -3.742188 5.71875 -4.066406 5.53125 -4.359375 C 5.34375 -4.660156 5.097656 -4.90625 4.796875 -5.09375 C 4.503906 -5.28125 4.179688 -5.375 3.828125 -5.375 C 3.484375 -5.375 3.15625 -5.28125 2.84375 -5.09375 C 2.539062 -4.90625 2.296875 -4.660156 2.109375 -4.359375 C 1.929688 -4.066406 1.84375 -3.742188 1.84375 -3.390625 C 1.84375 -3.046875 1.929688 -2.71875 2.109375 -2.40625 C 2.296875 -2.101562 2.539062 -1.859375 2.84375 -1.671875 C 3.15625 -1.484375 3.484375 -1.390625 3.828125 -1.390625 C 4.179688 -1.390625 4.503906 -1.484375 4.796875 -1.671875 C 5.097656 -1.859375 5.34375 -2.101562 5.53125 -2.40625 C 5.71875 -2.71875 5.8125 -3.046875 5.8125 -3.390625 Z M 7.296875 -3.375 C 7.296875 -2.914062 7.203125 -2.472656 7.015625 -2.046875 C 6.835938 -1.628906 6.585938 -1.257812 6.265625 -0.9375 C 5.941406 -0.613281 5.570312 -0.359375 5.15625 -0.171875 C 4.738281 0.00390625 4.296875 0.09375 3.828125 0.09375 C 3.359375 0.09375 2.914062 0.00390625 2.5 -0.171875 C 2.082031 -0.359375 1.710938 -0.613281 1.390625 -0.9375 C 1.066406 -1.257812 0.8125 -1.628906 0.625 -2.046875 C 0.4375 -2.472656 0.34375 -2.914062 0.34375 -3.375 C 0.34375 -3.84375 0.4375 -4.285156 0.625 -4.703125 C 0.8125 -5.128906 1.066406 -5.5 1.390625 -5.8125 C 1.710938 -6.132812 2.082031 -6.390625 2.5 -6.578125 C 2.914062 -6.765625 3.359375 -6.859375 3.828125 -6.859375 C 4.296875 -6.859375 4.738281 -6.765625 5.15625 -6.578125 C 5.570312 -6.390625 5.941406 -6.132812 6.265625 -5.8125 C 6.585938 -5.5 6.835938 -5.128906 7.015625 -4.703125 C 7.203125 -4.285156 7.296875 -3.84375 7.296875 -3.375 Z M 7.296875 -3.375 "/></g></g></g><g fill="#0003ff" fill-opacity="1"><g transform="translate(158.194507, 265.600763)"><g><path d="M 2.09375 -2.421875 L 2.09375 0 L 0.59375 0 L 0.59375 -6.75 L 3.125 -6.75 C 3.488281 -6.75 3.828125 -6.660156 4.140625 -6.484375 C 4.460938 -6.304688 4.71875 -6.050781 4.90625 -5.71875 C 5.101562 -5.394531 5.203125 -5.019531 5.203125 -4.59375 C 5.203125 -4.21875 5.128906 -3.882812 4.984375 -3.59375 C 4.847656 -3.300781 4.660156 -3.0625 4.421875 -2.875 C 4.191406 -2.6875 3.9375 -2.554688 3.65625 -2.484375 L 5.59375 0 L 3.703125 0 Z M 2.875 -5.578125 L 2.09375 -5.578125 L 2.09375 -3.59375 L 2.875 -3.59375 C 3.09375 -3.59375 3.296875 -3.675781 3.484375 -3.84375 C 3.679688 -4.019531 3.78125 -4.269531 3.78125 -4.59375 C 3.78125 -4.90625 3.679688 -5.144531 3.484375 -5.3125 C 3.296875 -5.488281 3.09375 -5.578125 2.875 -5.578125 Z M 2.875 -5.578125 "/></g></g></g><g fill="#0003ff" fill-opacity="1"><g transform="translate(167.247756, 265.600763)"><g/></g></g><g fill="#0003ff" fill-opacity="1"><g transform="translate(173.309794, 265.600763)"><g><path d="M 2.578125 0 L 2.578125 -3.234375 L 0.078125 -6.75 L 1.859375 -6.75 L 3.3125 -4.421875 L 4.78125 -6.75 L 6.5625 -6.75 L 4.0625 -3.234375 L 4.0625 0 Z M 2.578125 0 "/></g></g></g><g fill="#0003ff" fill-opacity="1"><g transform="translate(183.525739, 265.600763)"><g><path d="M 5.8125 -3.390625 C 5.8125 -3.742188 5.71875 -4.066406 5.53125 -4.359375 C 5.34375 -4.660156 5.097656 -4.90625 4.796875 -5.09375 C 4.503906 -5.28125 4.179688 -5.375 3.828125 -5.375 C 3.484375 -5.375 3.15625 -5.28125 2.84375 -5.09375 C 2.539062 -4.90625 2.296875 -4.660156 2.109375 -4.359375 C 1.929688 -4.066406 1.84375 -3.742188 1.84375 -3.390625 C 1.84375 -3.046875 1.929688 -2.71875 2.109375 -2.40625 C 2.296875 -2.101562 2.539062 -1.859375 2.84375 -1.671875 C 3.15625 -1.484375 3.484375 -1.390625 3.828125 -1.390625 C 4.179688 -1.390625 4.503906 -1.484375 4.796875 -1.671875 C 5.097656 -1.859375 5.34375 -2.101562 5.53125 -2.40625 C 5.71875 -2.71875 5.8125 -3.046875 5.8125 -3.390625 Z M 7.296875 -3.375 C 7.296875 -2.914062 7.203125 -2.472656 7.015625 -2.046875 C 6.835938 -1.628906 6.585938 -1.257812 6.265625 -0.9375 C 5.941406 -0.613281 5.570312 -0.359375 5.15625 -0.171875 C 4.738281 0.00390625 4.296875 0.09375 3.828125 0.09375 C 3.359375 0.09375 2.914062 0.00390625 2.5 -0.171875 C 2.082031 -0.359375 1.710938 -0.613281 1.390625 -0.9375 C 1.066406 -1.257812 0.8125 -1.628906 0.625 -2.046875 C 0.4375 -2.472656 0.34375 -2.914062 0.34375 -3.375 C 0.34375 -3.84375 0.4375 -4.285156 0.625 -4.703125 C 0.8125 -5.128906 1.066406 -5.5 1.390625 -5.8125 C 1.710938 -6.132812 2.082031 -6.390625 2.5 -6.578125 C 2.914062 -6.765625 3.359375 -6.859375 3.828125 -6.859375 C 4.296875 -6.859375 4.738281 -6.765625 5.15625 -6.578125 C 5.570312 -6.390625 5.941406 -6.132812 6.265625 -5.8125 C 6.585938 -5.5 6.835938 -5.128906 7.015625 -4.703125 C 7.203125 -4.285156 7.296875 -3.84375 7.296875 -3.375 Z M 7.296875 -3.375 "/></g></g></g><g fill="#0003ff" fill-opacity="1"><g transform="translate(194.755322, 265.600763)"><g><path d="M 4.546875 -6.75 L 6.03125 -6.75 L 6.03125 -2.640625 C 6.03125 -1.734375 5.785156 -1.050781 5.296875 -0.59375 C 4.804688 -0.132812 4.117188 0.09375 3.234375 0.09375 C 2.359375 0.09375 1.675781 -0.132812 1.1875 -0.59375 C 0.695312 -1.050781 0.453125 -1.734375 0.453125 -2.640625 L 0.453125 -6.75 L 1.9375 -6.75 L 1.9375 -2.859375 C 1.9375 -2.390625 2.023438 -2.023438 2.203125 -1.765625 C 2.390625 -1.515625 2.734375 -1.390625 3.234375 -1.390625 C 3.742188 -1.390625 4.085938 -1.515625 4.265625 -1.765625 C 4.453125 -2.023438 4.546875 -2.390625 4.546875 -2.859375 Z M 4.546875 -6.75 "/></g></g></g><g fill="#0003ff" fill-opacity="1"><g transform="translate(204.812258, 265.600763)"><g><path d="M 2.09375 -2.421875 L 2.09375 0 L 0.59375 0 L 0.59375 -6.75 L 3.125 -6.75 C 3.488281 -6.75 3.828125 -6.660156 4.140625 -6.484375 C 4.460938 -6.304688 4.71875 -6.050781 4.90625 -5.71875 C 5.101562 -5.394531 5.203125 -5.019531 5.203125 -4.59375 C 5.203125 -4.21875 5.128906 -3.882812 4.984375 -3.59375 C 4.847656 -3.300781 4.660156 -3.0625 4.421875 -2.875 C 4.191406 -2.6875 3.9375 -2.554688 3.65625 -2.484375 L 5.59375 0 L 3.703125 0 Z M 2.875 -5.578125 L 2.09375 -5.578125 L 2.09375 -3.59375 L 2.875 -3.59375 C 3.09375 -3.59375 3.296875 -3.675781 3.484375 -3.84375 C 3.679688 -4.019531 3.78125 -4.269531 3.78125 -4.59375 C 3.78125 -4.90625 3.679688 -5.144531 3.484375 -5.3125 C 3.296875 -5.488281 3.09375 -5.578125 2.875 -5.578125 Z M 2.875 -5.578125 "/></g></g></g><g fill="#0003ff" fill-opacity="1"><g transform="translate(213.865507, 265.600763)"><g/></g></g><g fill="#0003ff" fill-opacity="1"><g transform="translate(219.927545, 265.600763)"><g><path d="M 5.46875 -2.296875 L 7.140625 -2.296875 C 6.984375 -1.828125 6.742188 -1.410156 6.421875 -1.046875 C 6.097656 -0.691406 5.710938 -0.410156 5.265625 -0.203125 C 4.816406 -0.00390625 4.335938 0.09375 3.828125 0.09375 C 3.347656 0.09375 2.894531 0.00390625 2.46875 -0.171875 C 2.050781 -0.347656 1.679688 -0.597656 1.359375 -0.921875 C 1.046875 -1.242188 0.796875 -1.613281 0.609375 -2.03125 C 0.429688 -2.445312 0.34375 -2.894531 0.34375 -3.375 C 0.34375 -3.851562 0.429688 -4.300781 0.609375 -4.71875 C 0.796875 -5.144531 1.046875 -5.515625 1.359375 -5.828125 C 1.679688 -6.148438 2.050781 -6.398438 2.46875 -6.578125 C 2.894531 -6.765625 3.347656 -6.859375 3.828125 -6.859375 C 4.335938 -6.859375 4.8125 -6.753906 5.25 -6.546875 C 5.695312 -6.335938 6.082031 -6.054688 6.40625 -5.703125 C 6.726562 -5.347656 6.96875 -4.941406 7.125 -4.484375 L 5.46875 -4.484375 C 5.320312 -4.785156 5.097656 -5.023438 4.796875 -5.203125 C 4.492188 -5.378906 4.171875 -5.46875 3.828125 -5.46875 C 3.460938 -5.46875 3.128906 -5.375 2.828125 -5.1875 C 2.535156 -5 2.300781 -4.742188 2.125 -4.421875 C 1.945312 -4.109375 1.859375 -3.757812 1.859375 -3.375 C 1.859375 -2.988281 1.945312 -2.640625 2.125 -2.328125 C 2.300781 -2.015625 2.535156 -1.765625 2.828125 -1.578125 C 3.128906 -1.390625 3.460938 -1.296875 3.828125 -1.296875 C 4.179688 -1.296875 4.507812 -1.382812 4.8125 -1.5625 C 5.113281 -1.75 5.332031 -1.992188 5.46875 -2.296875 Z M 5.46875 -2.296875 "/></g></g></g><g fill="#0003ff" fill-opacity="1"><g transform="translate(230.888809, 265.600763)"><g><path d="M 0.59375 0 L 0.59375 -6.75 L 2.09375 -6.75 L 2.09375 -1.34375 L 4.515625 -1.34375 L 4.515625 0 Z M 0.59375 0 "/></g></g></g><g fill="#0003ff" fill-opacity="1"><g transform="translate(239.325931, 265.600763)"><g><path d="M 4.265625 -2.578125 L 3.421875 -4.984375 L 2.5625 -2.578125 Z M 6.796875 0 L 5.203125 0 L 4.703125 -1.359375 L 2.140625 -1.359375 L 1.65625 0 L 0.046875 0 L 2.796875 -6.75 L 4.046875 -6.75 Z M 6.796875 0 "/></g></g></g><g fill="#0003ff" fill-opacity="1"><g transform="translate(249.750571, 265.600763)"><g><path d="M 2.09375 0 L 0.59375 0 L 0.59375 -6.75 L 2.09375 -6.75 Z M 2.09375 0 "/></g></g></g><g fill="#0003ff" fill-opacity="1"><g transform="translate(256.011359, 265.600763)"><g><path d="M 9.015625 0 L 7.390625 0 L 6.59375 -4.65625 L 5.265625 0 L 3.8125 0 L 2.484375 -4.65625 L 1.6875 0 L 0.046875 0 L 1.359375 -6.75 L 3.125 -6.75 L 4.546875 -2.015625 L 5.9375 -6.75 L 7.71875 -6.75 Z M 9.015625 0 "/></g></g></g><g fill="#0003ff" fill-opacity="1"><g transform="translate(268.662011, 265.600763)"><g><path d="M 0.515625 -0.765625 C 0.515625 -1.015625 0.597656 -1.222656 0.765625 -1.390625 C 0.941406 -1.554688 1.148438 -1.640625 1.390625 -1.640625 C 1.628906 -1.640625 1.832031 -1.554688 2 -1.390625 C 2.175781 -1.222656 2.265625 -1.015625 2.265625 -0.765625 C 2.265625 -0.523438 2.175781 -0.320312 2 -0.15625 C 1.832031 0.0078125 1.628906 0.09375 1.390625 0.09375 C 1.148438 0.09375 0.941406 0.0078125 0.765625 -0.15625 C 0.597656 -0.320312 0.515625 -0.523438 0.515625 -0.765625 Z M 0.515625 -0.765625 "/></g></g></g><g clip-path="url(#22a685eeb8)"><path fill="#0003ff" d="M 202.898438 135.414062 L 199.503906 132.757812 C 199.117188 132.453125 198.589844 132.410156 198.164062 132.648438 L 194.386719 134.734375 C 193.800781 135.058594 193.585938 135.800781 193.910156 136.386719 C 194.234375 136.976562 194.976562 137.191406 195.566406 136.867188 L 197.164062 135.847656 C 196.421875 139.660156 193.074219 142.625 189.175781 143.144531 L 189.175781 129.101562 L 192.101562 129.101562 C 192.773438 129.101562 193.316406 128.3125 193.316406 127.640625 C 193.316406 126.96875 192.773438 126.179688 192.101562 126.179688 L 189.175781 126.179688 L 189.175781 124.683594 C 191.125 124.179688 191.855469 122.839844 191.855469 121.253906 C 191.855469 119.238281 190.339844 117.601562 188.324219 117.601562 C 186.308594 117.601562 184.730469 119.238281 184.730469 121.253906 C 184.730469 122.839844 185.808594 124.179688 187.226562 124.683594 L 187.226562 126.179688 L 184.789062 126.179688 C 184.117188 126.179688 183.570312 126.96875 183.570312 127.640625 C 183.570312 128.3125 184.117188 129.101562 184.789062 129.101562 L 187.226562 129.101562 L 187.226562 143.144531 C 183.34375 142.621094 180.226562 139.660156 179.484375 135.851562 L 181.316406 136.867188 C 181.90625 137.191406 182.648438 136.976562 182.972656 136.386719 C 183.296875 135.796875 183.082031 135.058594 182.492188 134.730469 L 178.71875 132.648438 C 178.289062 132.414062 177.761719 132.457031 177.378906 132.753906 L 173.980469 135.414062 C 173.453125 135.828125 173.359375 136.59375 173.773438 137.125 C 174.015625 137.429688 174.371094 137.59375 174.734375 137.59375 C 175 137.59375 175.261719 137.507812 175.488281 137.332031 L 177.058594 136.097656 C 178.011719 141.527344 182.75 145.667969 188.445312 145.667969 C 194.140625 145.667969 198.878906 141.53125 199.832031 136.105469 L 201.398438 137.332031 C 201.621094 137.507812 201.886719 137.59375 202.148438 137.59375 C 202.511719 137.59375 202.871094 137.433594 203.109375 137.125 C 203.519531 136.597656 203.429688 135.832031 202.898438 135.414062 Z M 188.441406 120.039062 C 189.113281 120.039062 189.660156 120.585938 189.660156 121.257812 C 189.660156 121.929688 189.113281 122.476562 188.441406 122.476562 C 187.773438 122.476562 187.226562 121.929688 187.226562 121.257812 C 187.226562 120.582031 187.773438 120.039062 188.441406 120.039062 Z M 188.441406 120.039062 " fill-opacity="1" fill-rule="nonzero"/></g><g clip-path="url(#7513ab8005)"><g clip-path="url(#57d159293a)"><path fill="#0003ff" d="M 163.550781 106.746094 L 213.332031 106.746094 L 213.332031 156.527344 L 163.550781 156.527344 Z M 163.550781 106.746094 " fill-opacity="1" fill-rule="nonzero"/></g></g></svg>